<svg width="37" height="37" viewBox="0 0 37 37" fill="none" xmlns="http://www.w3.org/2000/svg">
<path d="M9.22974 33.7395C9.5404 33.7395 9.79224 33.4877 9.79224 33.177C9.79224 32.8663 9.5404 32.6145 9.22974 32.6145C8.91908 32.6145 8.66724 32.8663 8.66724 33.177C8.66724 33.4877 8.91908 33.7395 9.22974 33.7395Z" fill="#22262A" stroke="#22262A" stroke-width="2" stroke-miterlimit="10" stroke-linecap="round" stroke-linejoin="round"/>
<path d="M17.1047 33.7395C17.4154 33.7395 17.6672 33.4877 17.6672 33.177C17.6672 32.8663 17.4154 32.6145 17.1047 32.6145C16.7941 32.6145 16.5422 32.8663 16.5422 33.177C16.5422 33.4877 16.7941 33.7395 17.1047 33.7395Z" fill="#22262A" stroke="#22262A" stroke-width="2" stroke-miterlimit="10" stroke-linecap="round" stroke-linejoin="round"/>
<path d="M3.04224 15.7395H5.29224L7.54224 29.2395H18.7922L21.0422 19.1145H6.41724" stroke="#22262A" stroke-width="2" stroke-linecap="round" stroke-linejoin="round"/>
<circle cx="24.0422" cy="12.7395" r="11" fill="#FB7181" stroke="white" stroke-width="2"/>
</svg>
